<svg width="304" height="308" viewBox="0 0 304 308" fill="none" xmlns="http://www.w3.org/2000/svg">
<path d="M47.8621 133.645V200.467L34.9665 214.926L32.528 218.523C25.9546 228.219 11.8917 228.832 4.49909 219.745V219.745C1.96298 216.628 0.578369 212.732 0.578369 208.714V200.592C0.578369 193.844 2.27167 187.203 5.50316 181.279L9.41637 174.104C15.9597 162.108 24.8922 151.58 35.6625 143.171L47.8621 133.645Z" fill="#6E9DD1"/>
<path d="M255.754 133.645V200.467L268.65 214.926L271.088 218.523C277.662 228.219 291.725 228.832 299.117 219.745V219.745C301.653 216.628 303.038 212.732 303.038 208.714V200.592C303.038 193.844 301.345 187.203 298.113 181.279L294.2 174.104C287.657 162.108 278.724 151.58 267.954 143.171L255.754 133.645Z" fill="#6E9DD1"/>
<path d="M258.202 101.621C264.495 160.304 258.202 382.611 149.438 282.399C40.6747 382.611 31.6008 160.304 40.6746 101.621C40.6746 45.4972 89.3698 0 149.438 0C209.507 0 258.202 45.4972 258.202 101.621Z" fill="#6E9DD1"/>
<path d="M233.871 106.681C233.871 147.04 196.256 154.747 149.855 154.747C103.453 154.747 65.838 147.04 65.838 106.681C65.838 66.3234 103.453 33.6066 149.855 33.6066C196.256 33.6066 233.871 66.3234 233.871 106.681Z" fill="#F6E6D0"/>
<path d="M137.96 97.2858C136.66 95.9856 137.581 93.7625 139.42 93.7625H160.409C162.26 93.7625 163.383 95.8067 162.389 97.3694V97.3694C161.93 98.0924 161.112 98.5074 160.257 98.4523L150.761 97.8398L139.429 97.8903C138.878 97.8928 138.35 97.6751 137.96 97.2858V97.2858Z" fill="#343137"/>
<circle cx="110.24" cy="84.6887" r="9.07379" fill="#343137"/>
<circle cx="110.24" cy="84.6886" r="6.04919" fill="#F5F5F5"/>
<circle cx="188.88" cy="84.6887" r="9.07379" fill="#343137"/>
<circle cx="188.88" cy="84.6886" r="6.04919" fill="#F5F5F5"/>
</svg>
