<svg width="304" height="308" viewBox="0 0 304 308" fill="none" xmlns="http://www.w3.org/2000/svg">
<path d="M47.9225 133.645V200.467L35.027 214.926L32.5884 218.523C26.015 228.219 11.9521 228.832 4.55951 219.745V219.745C2.0234 216.628 0.638794 212.732 0.638794 208.714V200.592C0.638794 193.844 2.33209 187.203 5.56359 181.279L9.47679 174.104C16.0201 162.108 24.9526 151.58 35.7229 143.171L47.9225 133.645Z" fill="#484848"/>
<path d="M255.815 133.645V200.467L268.71 214.926L271.149 218.523C277.722 228.219 291.785 228.832 299.178 219.745V219.745C301.714 216.628 303.098 212.732 303.098 208.714V200.592C303.098 193.844 301.405 187.203 298.174 181.279L294.26 174.104C287.717 162.108 278.785 151.58 268.014 143.171L255.815 133.645Z" fill="#484848"/>
<path d="M259.34 101.621C265.633 160.304 259.34 382.611 150.576 282.399C41.8124 382.611 32.7386 160.304 41.8124 101.621C41.8124 45.4972 90.5076 0 150.576 0C210.645 0 259.34 45.4972 259.34 101.621Z" fill="#484848"/>
<path d="M233.931 106.682C233.931 147.04 196.316 154.747 149.915 154.747C103.514 154.747 65.8984 147.04 65.8984 106.682C65.8984 66.3235 103.514 33.6068 149.915 33.6068C196.316 33.6068 233.931 66.3235 233.931 106.682Z" fill="#F6E6D0"/>
<path d="M102.959 71.9163C102.483 73.6924 104.392 75.1572 105.984 74.2379L124.161 63.7435C125.765 62.8175 125.715 60.4859 124.073 59.6294V59.6294C123.314 59.2332 122.398 59.2823 121.685 59.7575L113.768 65.0361L103.928 70.6584C103.45 70.9316 103.101 71.3844 102.959 71.9163V71.9163Z" fill="#343137"/>
<path d="M193.75 71.9163C194.226 73.6924 192.316 75.1572 190.724 74.2379L172.547 63.7435C170.943 62.8175 170.993 60.4859 172.635 59.6294V59.6294C173.395 59.2332 174.31 59.2823 175.023 59.7575L182.941 65.0361L192.78 70.6584C193.258 70.9316 193.607 71.3844 193.75 71.9163V71.9163Z" fill="#343137"/>
<path d="M139.098 127.532C137.798 126.232 138.719 124.008 140.558 124.008H161.546C163.398 124.008 164.521 126.053 163.527 127.615V127.615C163.067 128.338 162.25 128.753 161.395 128.698L151.899 128.086L140.567 128.136C140.016 128.139 139.487 127.921 139.098 127.532V127.532Z" fill="#343137"/>
<circle cx="118.94" cy="95.2747" r="7.56149" fill="#343137"/>
<circle cx="179.431" cy="95.2747" r="7.56149" fill="#343137"/>
</svg>
