<svg width="304" height="308" viewBox="0 0 304 308" fill="none" xmlns="http://www.w3.org/2000/svg">
<path d="M48.2229 133.645V200.467L35.3274 214.926L32.8889 218.523C26.3154 228.219 12.2525 228.832 4.85993 219.745V219.745C2.32382 216.628 0.939209 212.732 0.939209 208.714V200.592C0.939209 193.844 2.63251 187.203 5.864 181.279L9.77721 174.104C16.3205 162.108 25.253 151.58 36.0233 143.171L48.2229 133.645Z" fill="#986B9B"/>
<path d="M256.115 133.645V200.467L269.011 214.926L271.449 218.523C278.023 228.219 292.085 228.832 299.478 219.745V219.745C302.014 216.628 303.399 212.732 303.399 208.714V200.592C303.399 193.844 301.706 187.203 298.474 181.279L294.561 174.104C288.017 162.108 279.085 151.58 268.315 143.171L256.115 133.645Z" fill="#986B9B"/>
<path d="M259.734 101.621C266.027 160.304 259.734 382.611 150.97 282.399C42.2066 382.611 33.1327 160.304 42.2066 101.621C42.2066 45.4972 90.9018 0 150.97 0C211.039 0 259.734 45.4972 259.734 101.621Z" fill="#986B9B"/>
<path d="M234.232 106.681C234.232 147.04 196.616 154.747 150.215 154.747C103.814 154.747 66.1988 147.04 66.1988 106.681C66.1988 66.3234 103.814 33.6066 150.215 33.6066C196.616 33.6066 234.232 66.3234 234.232 106.681Z" fill="#F6E6D0"/>
<path d="M140.002 120.984C138.514 116.52 141.837 111.91 146.542 111.91H157.806C162.54 111.91 165.97 116.423 164.703 120.984V120.984V120.984C162.213 134.676 142.592 134.657 140.002 120.984V120.984V120.984Z" fill="#343137"/>
<circle cx="122.358" cy="86.201" r="7.56149" fill="#343137"/>
<circle cx="182.85" cy="86.201" r="7.56149" fill="#343137"/>
</svg>
