<svg width="303" height="308" viewBox="0 0 303 308" fill="none" xmlns="http://www.w3.org/2000/svg">
<path d="M47.2837 133.645V200.467L34.3882 214.926L31.9497 218.523C25.3762 228.219 11.3133 228.832 3.92072 219.745V219.745C1.38461 216.628 0 212.732 0 208.713V200.592C0 193.843 1.6933 187.203 4.92479 181.279L8.838 174.104C15.3813 162.108 24.3138 151.58 35.0841 143.171L47.2837 133.645Z" fill="#007C7D"/>
<path d="M255.176 133.645V200.467L268.071 214.926L270.51 218.523C277.083 228.219 291.146 228.832 298.539 219.745V219.745C301.075 216.628 302.46 212.732 302.46 208.713V200.592C302.46 193.843 300.766 187.203 297.535 181.279L293.622 174.104C287.078 162.108 278.146 151.58 267.375 143.171L255.176 133.645Z" fill="#007C7D"/>
<path d="M259.872 101.621C266.165 160.304 259.872 382.611 151.108 282.399C42.3444 382.611 33.2706 160.304 42.3444 101.621C42.3444 45.4972 91.0396 0 151.108 0C211.177 0 259.872 45.4972 259.872 101.621Z" fill="#007C7D"/>
<path d="M233.293 106.681C233.293 147.04 195.677 154.747 149.276 154.747C102.875 154.747 65.2596 147.04 65.2596 106.681C65.2596 66.3234 102.875 33.6066 149.276 33.6066C195.677 33.6066 233.293 66.3234 233.293 106.681Z" fill="#F6E6D0"/>
<circle cx="119.472" cy="86.201" r="7.56149" fill="#343137"/>
<circle cx="179.963" cy="86.201" r="7.56149" fill="#343137"/>
<path d="M139.131 111.91C138.015 110.794 138.806 108.885 140.384 108.885H162.075C163.654 108.885 164.444 110.794 163.328 111.91V111.91V111.91C156.401 117.971 146.058 117.971 139.131 111.91V111.91V111.91Z" fill="#343137"/>
</svg>
